<svg width="87" height="87" viewBox="0 0 87 87" fill="none" xmlns="http://www.w3.org/2000/svg">
<path d="M43.6185 37.695C42.5415 37.1565 41.4645 36.618 40.3875 36.0795L80.775 0H70.005L32.31 32.8485C30.6945 32.31 29.079 32.31 26.925 32.31C11.847 32.31 0 44.157 0 59.235C0 74.313 12.3855 86.16 26.925 86.16C41.4645 86.16 53.85 74.313 53.85 59.235C53.85 56.004 53.3115 52.773 52.2345 50.0805L59.235 43.08V32.31H70.005V21.54H80.775L86.16 16.155V0L43.6185 37.695ZM21.54 71.082C17.7705 71.082 15.078 67.851 15.078 64.62C15.078 61.389 18.309 58.158 21.54 58.158C24.771 58.158 28.002 61.389 28.002 64.62C28.002 67.851 25.3095 71.082 21.54 71.082Z" fill="black"/>
</svg>
