<svg width="234" height="201" viewBox="0 0 234 201" fill="none" xmlns="http://www.w3.org/2000/svg">
<path d="M117.215 0.000162714C148.479 0.0481849 176.864 10.5864 197.822 27.7179L214.671 13.3051C221.804 7.2039 234 11.5251 234 20.1538V74.253C234 79.6021 228.931 83.9382 222.677 83.9382H159.432C149.344 83.9382 144.293 73.5061 151.425 67.4044L171.122 50.5563C156.561 38.8941 137.72 32.4341 117.703 32.2864C74.1119 31.9644 37.3678 62.1397 37.7448 100.664C38.1024 137.21 72.74 167.876 117 167.876C136.403 167.876 154.741 161.953 169.192 151.106C171.43 149.427 174.809 149.529 176.914 151.33L195.625 167.335C197.924 169.301 197.81 172.507 195.398 174.37C174.652 190.399 147.159 200.16 117 200.16C52.383 200.16 0.000471777 155.353 3.16917e-09 100.081C-0.000471771 44.8719 52.6717 -0.0987066 117.215 0.000162714Z" fill="black"/>
<path d="M150.929 94.08H146.313V80.2329C146.313 64.1163 133.197 51 117.08 51C100.963 51 87.8471 64.1163 87.8471 80.2329V94.08H83.2314C78.1349 94.08 74 98.2149 74 103.311V140.237C74 145.334 78.1349 149.469 83.2314 149.469H150.929C156.025 149.469 160.16 145.334 160.16 140.237V103.311C160.16 98.2149 156.025 94.08 150.929 94.08ZM130.927 94.08H103.233V80.2329C103.233 72.5977 109.445 66.3857 117.08 66.3857C124.715 66.3857 130.927 72.5977 130.927 80.2329V94.08Z" fill="black"/>
</svg>
