<svg width="87" height="99" viewBox="0 0 87 99" fill="none" xmlns="http://www.w3.org/2000/svg">
<path d="M76.9286 43.08H72.3129V29.2329C72.3129 13.1163 59.1965 0 43.08 0C26.9635 0 13.8471 13.1163 13.8471 29.2329V43.08H9.23143C4.13491 43.08 0 47.2149 0 52.3114V89.2371C0 94.3337 4.13491 98.4686 9.23143 98.4686H76.9286C82.0251 98.4686 86.16 94.3337 86.16 89.2371V52.3114C86.16 47.2149 82.0251 43.08 76.9286 43.08ZM56.9271 43.08H29.2329V29.2329C29.2329 21.5977 35.4448 15.3857 43.08 15.3857C50.7152 15.3857 56.9271 21.5977 56.9271 29.2329V43.08Z" fill="black"/>
</svg>
