<svg width="87" height="87" viewBox="0 0 87 87" fill="none" xmlns="http://www.w3.org/2000/svg">
<path d="M43.08 0C40.0644 0 37.695 2.3694 37.695 5.385C37.695 8.4006 40.0644 10.77 43.08 10.77C46.0956 10.77 48.465 8.4006 48.465 5.385C48.465 2.3694 46.0956 0 43.08 0ZM16.155 10.77C13.1394 10.77 10.77 13.1394 10.77 16.155C10.77 19.1706 13.1394 21.54 16.155 21.54C19.1706 21.54 21.54 19.1706 21.54 16.155C21.54 13.1394 19.1706 10.77 16.155 10.77ZM70.005 10.77C66.9894 10.77 64.62 13.1394 64.62 16.155C64.62 19.1706 66.9894 21.54 70.005 21.54C73.0206 21.54 75.39 19.1706 75.39 16.155C75.39 13.1394 73.0206 10.77 70.005 10.77ZM43.08 21.54C31.233 21.54 21.54 31.233 21.54 43.08C21.54 54.927 31.233 64.62 43.08 64.62C54.927 64.62 64.62 54.927 64.62 43.08C64.62 31.233 54.927 21.54 43.08 21.54ZM5.385 37.695C2.3694 37.695 0 40.0644 0 43.08C0 46.0956 2.3694 48.465 5.385 48.465C8.4006 48.465 10.77 46.0956 10.77 43.08C10.77 40.0644 8.4006 37.695 5.385 37.695ZM80.775 37.695C77.7594 37.695 75.39 40.0644 75.39 43.08C75.39 46.0956 77.7594 48.465 80.775 48.465C83.7906 48.465 86.16 46.0956 86.16 43.08C86.16 40.0644 83.7906 37.695 80.775 37.695ZM16.155 64.62C13.1394 64.62 10.77 66.9894 10.77 70.005C10.77 73.0206 13.1394 75.39 16.155 75.39C19.1706 75.39 21.54 73.0206 21.54 70.005C21.54 66.9894 19.1706 64.62 16.155 64.62ZM70.005 64.62C66.9894 64.62 64.62 66.9894 64.62 70.005C64.62 73.0206 66.9894 75.39 70.005 75.39C73.0206 75.39 75.39 73.0206 75.39 70.005C75.39 66.9894 73.0206 64.62 70.005 64.62ZM43.08 75.39C40.0644 75.39 37.695 77.7594 37.695 80.775C37.695 83.7906 40.0644 86.16 43.08 86.16C46.0956 86.16 48.465 83.7906 48.465 80.775C48.465 77.7594 46.0956 75.39 43.08 75.39Z" fill="black"/>
</svg>
